<svg xmlns="http://www.w3.org/2000/svg"  viewBox="0 0 64 64" width="256px" height="256px" baseProfile="basic"><path fill="#ffa602" d="M18,55h-3c-1.105,0-2-0.895-2-2v-8h7v8C20,54.105,19.105,55,18,55z"/><path fill="#ffa602" d="M49,55h-3c-1.105,0-2-0.895-2-2v-8h7v8C51,54.105,50.105,55,49,55z"/><ellipse cx="32" cy="60.996" opacity=".3" rx="22.062" ry="3" transform="translate(-.423 .224)"/><path fill="#ffce29" d="M53,47H11c-1.105,0-2-0.895-2-2v-4c0-1.105,0.895-2,2-2h42c1.105,0,2,0.895,2,2v4	C55,46.105,54.105,47,53,47z"/><path d="M55,45v-2.578C54.387,42.154,53.712,42,53,42H35.011c-2.761,0-5,2.239-5,5H53	C54.105,47,55,46.105,55,45z" opacity=".15"/><path fill="#fd3c4f" d="M20,39h-5c-1.105,0-2-0.895-2-2V13c0-1.105,0.895-2,2-2h5c1.105,0,2,0.895,2,2v24	C22,38.105,21.105,39,20,39z"/><path fill="#37d0ee" d="M38,39h-5c-1.105,0-2-0.895-2-2V13c0-1.105,0.895-2,2-2h5c1.105,0,2,0.895,2,2v24	C40,38.105,39.105,39,38,39z"/><path fill="#98c900" d="M52.266,37.97l-4.892,1.033c-1.081,0.228-2.142-0.463-2.37-1.544l-4.958-23.482	c-0.228-1.081,0.463-2.142,1.544-2.37l4.892-1.033c1.081-0.228,2.142,0.463,2.37,1.544L53.81,35.6	C54.038,36.681,53.347,37.742,52.266,37.97z"/><path fill="#9c34c2" d="M29,39h-5c-1.105,0-2-0.895-2-2V10c0-1.105,0.895-2,2-2h5c1.105,0,2,0.895,2,2v27	C31,38.105,30.105,39,29,39z"/><path fill="#fff" d="M14.208,11.164C13.498,11.471,13,12.177,13,13v20.034c2.761,0,5-2.239,5-5V16	C18,13.658,16.383,11.707,14.208,11.164z" opacity=".3"/><line x1="16.5" x2="16.5" y1="16.5" y2="21.5" fill="none" stroke="#fff" stroke-linecap="round" stroke-linejoin="round" stroke-miterlimit="10" stroke-width="3"/></svg>